<?xml version="1.0" encoding="UTF-8"?>
<svg width="14px" height="13px" viewBox="0 0 14 13" version="1.1" xmlns="http://www.w3.org/2000/svg" xmlns:xlink="http://www.w3.org/1999/xlink">
    <!-- Generator: Sketch 59.1 (86144) - https://sketch.com -->
    <title>01 Icon / 07 Badges / Available Product Copy</title>
    <desc>Created with Sketch.</desc>
    <g id="General" stroke="none" stroke-width="1" fill="none" fill-rule="evenodd">
        <g id="02-Badges-/-Ads-by-Adro-/-01-Main-Copy" transform="translate(0.000000, -1.000000)" fill="#FF009C" fill-rule="nonzero">
            <g id="01-Icon-/-07-Badges-/-Ads" transform="translate(0.000000, 1.000000)">
                <path d="M12.7888394,1.75389272 L12.7888394,11.0872261 L9.94424652,11.0872261 L8.40230965,10.6369233 C8.07731908,11.7704095 6.94180349,12.4982319 5.75477246,12.2889263 C4.52534472,12.072145 3.69166645,10.9296235 3.84325249,9.71022212 L3.86101765,9.59200403 L3.9029227,9.33722605 L1.1221727,9.33722605 L1.1221727,3.50389272 L3.95483937,3.50389272 L9.94424652,1.75389272 L12.7888394,1.75389272 Z M5.0334227,9.65164272 L5.01100917,9.78845198 C4.89912205,10.4229953 5.32281865,11.0280968 5.957362,11.1399839 C6.55242539,11.2449096 7.12159653,10.8788242 7.28239367,10.3095442 L5.0334227,9.65164272 Z M11.6221727,2.92055938 L10.455506,2.91997605 L10.455506,9.92055938 L11.6221727,9.92055938 L11.6221727,2.92055938 Z M9.28883937,3.16030938 L4.6221727,4.52449885 L4.6221727,8.31661991 L9.28883937,9.68022605 L9.28883937,3.16030938 Z M3.45550604,4.67055938 L2.28883937,4.67055938 L2.28883937,8.17055938 L3.45550604,8.17055938 L3.45550604,4.67055938 Z" id="Shape" transform="translate(6.955506, 7.039329) rotate(-10.000000) translate(-6.955506, -7.039329) "></path>
            </g>
        </g>
    </g>
</svg>