<svg width="113" height="23" viewBox="0 0 113 23" fill="none" xmlns="http://www.w3.org/2000/svg">
<path fill-rule="evenodd" clip-rule="evenodd" d="M112.408 13.7674C112.408 15.6937 110.877 17.2348 108.959 17.2348H85.8504V4.75946H108.959C110.914 4.75946 112.408 6.24549 112.408 8.19017V13.7674ZM94.0205 14.3728H95.3668V7.51137H93.9652L91.9734 10.7586L89.9816 7.51137H88.5799V14.3728H89.9447V9.93305L91.8996 13.1069H92.0656L94.0205 9.93305V14.3728ZM100.715 13.1253H97.9487L97.5245 14.3545H96.0491L98.4836 7.51138H100.18L102.615 14.3545H101.121L100.715 13.1253ZM99.3319 9.0708L98.3729 11.8777H100.291L99.3319 9.0708ZM106.691 14.5012C108.682 14.5012 110.102 13.1987 110.102 11.2173V10.6669H106.635V11.8594H108.738C108.498 12.6483 107.797 13.162 106.709 13.162C105.252 13.162 104.33 12.1896 104.33 10.9237C104.33 9.62117 105.27 8.66717 106.598 8.66717C107.447 8.66717 108.148 9.07079 108.461 9.62117L109.623 8.96071C109.033 8.02506 107.926 7.3646 106.598 7.3646C104.533 7.3646 102.965 8.96071 102.965 10.9421C102.965 12.9051 104.514 14.5012 106.691 14.5012Z" fill="#424750"/>
<path fill-rule="evenodd" clip-rule="evenodd" d="M56.1818 14.1818H61.0909V7.63636H56.1818C55.3348 7.63636 54.5455 8.42764 54.5455 9.27273V12.5455C54.5455 13.3907 55.3348 14.1818 56.1818 14.1818ZM75.8182 14.1818H80.7273V7.63636H75.8182C74.9711 7.63636 74.1818 8.42764 74.1818 9.27273V12.5455C74.1818 13.3907 74.9711 14.1818 75.8182 14.1818ZM64.3636 5.18182V16.6364C64.3636 16.9973 63.9075 17.4545 63.5455 17.4545L61.9093 17.4717C61.547 17.4717 61.0909 16.9975 61.0909 16.6364V16.0909L60.3484 16.9825C60.1223 17.29 59.5642 17.4545 59.1818 17.4545H56.1818C53.5495 17.4545 51.2727 15.1716 51.2727 12.5455V9.27273C51.2727 6.64654 53.5495 4.36364 56.1818 4.36364H63.5455C63.907 4.36364 64.3636 4.82121 64.3636 5.18182ZM84 5.18182V16.6364C84 16.9973 83.5439 17.4545 83.1818 17.4545L81.5457 17.4717C81.1834 17.4717 80.7273 16.9975 80.7273 16.6364V16.0909L79.9848 16.9825C79.7586 17.29 79.2005 17.4545 78.8182 17.4545H75.8182C73.1858 17.4545 70.9091 15.1716 70.9091 12.5455V9.27273C70.9091 6.64654 73.1858 4.36364 75.8182 4.36364H83.1818C83.5434 4.36364 84 4.82121 84 5.18182ZM29.4545 7.63636H24.5455C23.6983 7.63636 22.9091 8.42764 22.9091 9.27273V12.5455C22.9091 13.3908 23.6983 14.1818 24.5455 14.1818H29.4545V7.63636ZM32.7273 5.18182V17.4545V17.7273C32.7273 20.3535 30.4505 22.3636 27.8182 22.3636H25.2886C24.9122 22.3636 24.5575 22.1876 24.3305 21.8879L22.8906 19.9868C22.6514 19.6712 22.7852 19.0909 23.1818 19.0909H27.8182C28.6652 19.0909 29.4545 18.5724 29.4545 17.7273V17.4545H24.5455C21.9132 17.4545 19.6364 15.1716 19.6364 12.5455V9.27273C19.6364 6.64666 21.9132 4.36364 24.5455 4.36364H27.5455C27.9209 4.36364 28.33 4.66564 28.5951 4.90909L29.4545 5.72727V5.18182C29.4545 4.82133 29.9115 4.36364 30.2727 4.36364H31.9091C32.271 4.36364 32.7273 4.82059 32.7273 5.18182ZM3.27273 12.5455C3.27273 13.3905 4.06202 14.1818 4.90909 14.1818H9.81818V7.63636H4.90909C4.06202 7.63636 3.27273 8.42764 3.27273 9.27273V12.5455ZM12.2727 0C12.6349 0 13.0909 0.457076 13.0909 0.818182V16.6364C13.0909 16.9973 12.6349 17.4545 12.2727 17.4545H10.6364C10.2743 17.4545 9.81818 16.9976 9.81818 16.6364V16.0909L8.96024 17.009C8.72781 17.2671 8.27957 17.4545 7.90909 17.4545H4.90909C2.27675 17.4545 0 15.1716 0 12.5455V9.2977C0 6.67151 2.27675 4.36364 4.90909 4.36364H9.81818V0.818182C9.81818 0.457076 10.2743 0 10.6364 0H12.2727ZM46.0909 10.9091L50.6457 5.14369C50.8991 4.82946 50.675 4.36251 50.2709 4.36251H47.6658C47.4688 4.36251 47.2823 4.45096 47.1576 4.60333L42.5455 10.3636V0.818182C42.5455 0.457076 42.0892 0 41.7273 0H40.0909C39.7288 0 39.2727 0.457076 39.2727 0.818182V16.6364C39.2727 16.9975 39.7288 17.4545 40.0909 17.4545H41.7273C42.0893 17.4545 42.5455 16.9975 42.5455 16.6364V11.4545L47.1601 17.2276C47.2845 17.3818 47.4722 17.4717 47.6708 17.4717H50.2732C50.6774 17.4717 50.9017 17.0045 50.6482 16.6904L46.0909 10.9091ZM35.1818 0C34.82 0 34.3636 0.457076 34.3636 0.818182V2.45455C34.3636 2.81565 34.82 3.27273 35.1818 3.27273H36.8182C37.1801 3.27273 37.6364 2.81565 37.6364 2.45455V0.818182C37.6364 0.457076 37.1801 0 36.8182 0H35.1818ZM35.1818 4.36364C34.82 4.36364 34.3636 4.82084 34.3636 5.18182V16.6364C34.3636 16.9973 34.9483 17.4716 35.3101 17.4716L36.8182 17.4545C37.1801 17.4545 37.6364 16.9973 37.6364 16.6364V5.18182C37.6364 4.82084 37.1801 4.36364 36.8182 4.36364H35.1818ZM15.5455 0C15.1835 0 14.7273 0.457076 14.7273 0.818182V2.45455C14.7273 2.81565 15.1835 3.27273 15.5455 3.27273H17.1818C17.5438 3.27273 18 2.81565 18 2.45455V0.818182C18 0.457076 17.5438 0 17.1818 0H15.5455ZM15.5455 4.36364C15.1835 4.36364 14.7273 4.82084 14.7273 5.18182V16.6364C14.7273 16.9973 15.1835 17.4545 15.5455 17.4545H17.1818C17.5438 17.4545 18 16.9973 18 16.6364V5.18182C18 4.82084 17.5438 4.36364 17.1818 4.36364H15.5455ZM69.2727 0.818182V16.6364C69.2727 16.9973 68.8166 17.4545 68.4545 17.4545H66.8182C66.4561 17.4545 66 16.9973 66 16.6364V0.818182C66 0.457076 66.4561 0 66.8182 0H68.4545C68.8166 0 69.2727 0.457076 69.2727 0.818182Z" fill="#424750"/>
</svg>
